<svg xmlns="http://www.w3.org/2000/svg" viewBox="0 0 32 32" width="32" height="32">
  <defs>
    <linearGradient id="g" x1="0%" y1="0%" x2="100%" y2="100%">
      <stop offset="0%" stop-color="#a43c12"/>
      <stop offset="100%" stop-color="#fe7e4f"/>
    </linearGradient>
  </defs>
  <!-- Left leaf arc -->
  <path d="M16 28 L16 18 C16 14, 14 11, 10 7 C6 3, 1 2, 0 6 C-1 10, 4 14, 8 12 C11 11, 13 9, 14 7"
        fill="none" stroke="url(#g)" stroke-width="2.2" stroke-linecap="round" stroke-linejoin="round"/>
  <!-- Right leaf arc -->
  <path d="M16 18 C16 14, 18 11, 22 7 C26 3, 31 2, 32 6 C33 10, 28 14, 24 12 C21 11, 19 9, 18 7"
        fill="none" stroke="url(#g)" stroke-width="2.2" stroke-linecap="round" stroke-linejoin="round"/>
  <!-- Stem base -->
  <path d="M13 20 C13 23, 14.5 25, 16 27 C17.5 25, 19 23, 19 20"
        fill="none" stroke="url(#g)" stroke-width="1.8" stroke-linecap="round"/>
</svg>
